<svg width="4365" height="2144" viewBox="0 0 4365 2144" fill="none" xmlns="http://www.w3.org/2000/svg">
<path d="M2671.96 1980.45C2674.59 1990.94 2675.91 2004.07 2675.9 2019.81C2675.9 2034.9 2674.57 2048.02 2671.92 2059.17L2355.08 2059.03C2352.45 2047.88 2351.13 2034.76 2351.14 2019.67C2351.15 2003.92 2352.47 1990.8 2355.12 1980.31L2671.96 1980.45Z" fill="#650000"/>
<path d="M3068.57 1586.99C3071.21 1597.49 3072.52 1610.61 3072.52 1626.36C3072.51 1641.45 3071.18 1654.57 3068.54 1665.72C3071.17 1676.22 3072.49 1689.34 3072.48 1705.08C3072.47 1720.17 3071.15 1733.29 3068.5 1744.45C3071.14 1754.94 3072.45 1768.06 3072.44 1783.81C3072.44 1798.9 3071.11 1812.02 3068.47 1823.17C3071.1 1833.67 3072.42 1846.79 3072.41 1862.54C3072.4 1877.62 3071.08 1890.75 3068.43 1901.9C3071.07 1912.39 3072.38 1925.52 3072.37 1941.26C3072.37 1956.35 3071.04 1969.47 3068.4 1980.62C3071.03 1991.12 3072.35 2004.24 3072.34 2019.99C3072.33 2035.08 3071.01 2048.2 3068.36 2059.35L2989.15 2059.31C2986.52 2048.16 2985.2 2035.04 2985.21 2019.95C2985.21 2004.2 2986.54 1991.08 2989.19 1980.59L2959.48 1980.57C2956.85 1969.42 2955.53 1956.3 2955.54 1941.21C2955.55 1925.46 2956.87 1912.34 2959.52 1901.85L2989.22 1901.86C2986.59 1890.71 2985.27 1877.59 2985.28 1862.5C2985.29 1846.75 2986.61 1833.63 2989.26 1823.14L2959.55 1823.12C2956.92 1811.97 2955.6 1798.85 2955.61 1783.76C2955.62 1768.01 2956.94 1754.89 2959.59 1744.4L2989.29 1744.41C2986.66 1733.26 2985.34 1720.13 2985.35 1705.05C2985.36 1689.3 2986.68 1676.18 2989.33 1665.68C2986.69 1654.53 2985.38 1641.41 2985.38 1626.32C2985.39 1610.57 2986.72 1597.45 2989.36 1586.96C2986.73 1575.8 2985.41 1562.68 2985.42 1547.59C2985.43 1531.85 2986.75 1518.73 2989.4 1508.23L3068.61 1508.27C3071.24 1518.77 3072.56 1531.89 3072.55 1547.63C3072.54 1562.72 3071.22 1575.84 3068.57 1586.99ZM2943.76 1705.03C2943.76 1720.12 2942.43 1733.24 2939.79 1744.39L2840.77 1744.34C2843.41 1754.84 2844.72 1767.96 2844.72 1783.71C2844.71 1798.8 2843.38 1811.92 2840.74 1823.07L2811.03 1823.06C2811.03 1823.06 2814.98 1846.68 2814.98 1862.42C2814.97 1877.51 2813.64 1890.63 2811 1901.78L2840.7 1901.8C2843.34 1912.29 2844.65 1925.42 2844.65 1941.16C2844.64 1956.25 2843.31 1969.37 2840.67 1980.52L2939.68 1980.57C2942.32 1991.06 2943.63 2004.19 2943.62 2019.93C2943.62 2035.02 2942.29 2048.14 2939.64 2059.29L2830.73 2059.24C2828.1 2048.09 2826.78 2034.97 2826.79 2019.88C2826.79 2004.13 2828.12 1991.01 2830.77 1980.52L2781.26 1980.5C2778.62 1969.34 2777.31 1956.22 2777.32 1941.13C2777.32 1925.39 2778.65 1912.26 2781.29 1901.77L2751.59 1901.76C2748.96 1890.6 2747.64 1877.48 2747.65 1862.39C2747.66 1846.65 2748.98 1833.53 2751.63 1823.03L2781.33 1823.04C2778.7 1811.89 2777.38 1798.77 2777.39 1783.68C2777.39 1767.93 2778.72 1754.81 2781.37 1744.32L2830.87 1744.34C2828.24 1733.19 2826.92 1720.06 2826.93 1704.97C2826.94 1689.23 2828.26 1676.11 2830.91 1665.61L2939.82 1665.66C2942.46 1676.16 2943.77 1689.28 2943.76 1705.03Z" fill="#650000"/>
<path d="M3464.83 1980.8C3467.47 1991.3 3468.78 2004.42 3468.78 2020.16C3468.77 2035.25 3467.44 2048.37 3464.8 2059.52L3385.59 2059.49C3382.95 2048.34 3381.64 2035.21 3381.64 2020.12C3381.65 2004.38 3382.98 1991.26 3385.62 1980.76L3346.02 1980.75C3343.38 1969.59 3342.07 1956.47 3342.08 1941.38C3342.08 1925.64 3343.41 1912.52 3346.05 1902.02L3227.24 1901.97C3229.87 1912.47 3231.19 1925.59 3231.18 1941.33C3231.17 1956.42 3229.85 1969.54 3227.2 1980.69L3346.02 1980.75C3348.65 1991.24 3349.97 2004.37 3349.96 2020.11C3349.95 2035.2 3348.63 2048.32 3345.98 2059.47L3187.56 2059.4C3184.93 2048.25 3183.61 2035.13 3183.62 2020.04C3183.63 2004.29 3184.95 1991.17 3187.6 1980.68L3147.99 1980.66C3145.36 1969.5 3144.04 1956.38 3144.05 1941.29C3144.06 1925.55 3145.38 1912.43 3148.03 1901.93L3187.63 1901.95C3185 1890.8 3183.68 1877.67 3183.69 1862.59C3183.7 1846.84 3185.02 1833.72 3187.67 1823.22L3346.09 1823.29C3343.45 1812.14 3342.14 1799.02 3342.15 1783.93C3342.15 1768.18 3343.48 1755.06 3346.12 1744.57L3207.51 1744.51C3204.87 1733.35 3203.56 1720.23 3203.56 1705.14C3203.57 1689.4 3204.9 1676.28 3207.54 1665.78L3385.76 1665.86C3388.4 1676.36 3389.71 1689.48 3389.71 1705.22C3389.7 1720.31 3388.37 1733.43 3385.73 1744.59L3425.33 1744.6C3427.97 1755.1 3429.28 1768.22 3429.28 1783.97C3429.27 1799.06 3427.94 1812.18 3425.3 1823.33C3427.93 1833.83 3429.25 1846.95 3429.24 1862.69C3429.23 1877.78 3427.91 1890.9 3425.26 1902.06C3427.9 1912.55 3429.21 1925.67 3429.21 1941.42C3429.2 1956.51 3427.87 1969.63 3425.23 1980.78L3464.83 1980.8Z" fill="#650000"/>
<path d="M3821.66 1980.96C3824.3 1991.46 3825.61 2004.58 3825.61 2020.32C3825.6 2035.41 3824.27 2048.53 3821.63 2059.68L3663.21 2059.61C3660.57 2048.46 3659.26 2035.34 3659.27 2020.25C3659.27 2004.5 3660.6 1991.38 3663.24 1980.89L3623.64 1980.87C3621 1969.72 3619.69 1956.59 3619.7 1941.5C3619.7 1925.76 3621.03 1912.64 3623.68 1902.14C3621.04 1890.99 3619.73 1877.87 3619.73 1862.78C3619.74 1847.03 3621.07 1833.91 3623.71 1823.42C3621.08 1812.26 3619.76 1799.14 3619.77 1784.05C3619.77 1768.31 3621.1 1755.19 3623.75 1744.69L3544.54 1744.66C3541.9 1733.5 3540.59 1720.38 3540.59 1705.29C3540.6 1689.55 3541.93 1676.43 3544.57 1665.93L3623.78 1665.97C3621.15 1654.81 3619.83 1641.69 3619.84 1626.6C3619.85 1610.86 3621.17 1597.74 3623.82 1587.24C3621.18 1576.09 3619.87 1562.96 3619.87 1547.88C3619.88 1532.13 3621.21 1519.01 3623.85 1508.51L3703.06 1508.55C3705.7 1519.05 3707.01 1532.17 3707.01 1547.91C3707 1563 3705.67 1576.12 3703.03 1587.28C3705.66 1597.77 3706.98 1610.89 3706.97 1626.64C3706.96 1641.73 3705.64 1654.85 3702.99 1666L3821.81 1666.05C3824.44 1676.55 3825.76 1689.67 3825.75 1705.42C3825.74 1720.51 3824.42 1733.63 3821.77 1744.78L3702.96 1744.73C3705.59 1755.23 3706.91 1768.35 3706.9 1784.09C3706.89 1799.18 3705.57 1812.3 3702.92 1823.45C3705.56 1833.95 3706.87 1847.07 3706.86 1862.82C3706.86 1877.91 3705.53 1891.03 3702.89 1902.18C3705.52 1912.68 3706.83 1925.8 3706.83 1941.54C3706.82 1956.63 3705.5 1969.75 3702.85 1980.9L3821.66 1980.96Z" fill="#650000"/>
<path d="M4257.71 1981.15C4260.34 1991.65 4261.66 2004.77 4261.65 2020.52C4261.64 2035.61 4260.32 2048.73 4257.67 2059.88L4178.46 2059.84C4175.83 2048.69 4174.51 2035.57 4174.52 2020.48C4174.53 2004.73 4175.85 1991.61 4178.5 1981.12L4138.89 1981.1C4136.26 1969.94 4134.94 1956.82 4134.95 1941.73C4134.96 1925.99 4136.28 1912.87 4138.93 1902.37L4020.11 1902.32C4022.75 1912.82 4024.06 1925.94 4024.05 1941.68C4024.05 1956.77 4022.72 1969.89 4020.08 1981.05L4138.89 1981.1C4141.53 1991.6 4142.84 2004.72 4142.83 2020.46C4142.83 2035.55 4141.5 2048.67 4138.86 2059.82L3980.44 2059.75C3977.8 2048.6 3976.49 2035.48 3976.49 2020.39C3976.5 2004.64 3977.83 1991.52 3980.47 1981.03L3940.87 1981.01C3938.23 1969.86 3936.92 1956.73 3936.92 1941.65C3936.93 1925.9 3938.26 1912.78 3940.9 1902.28L3980.51 1902.3C3977.87 1891.15 3976.56 1878.03 3976.56 1862.94C3976.57 1847.19 3977.9 1834.07 3980.54 1823.58L4138.96 1823.65C4136.33 1812.49 4135.01 1799.37 4135.02 1784.28C4135.03 1768.54 4136.35 1755.42 4139 1744.92L4000.38 1744.86C3997.75 1733.71 3996.43 1720.58 3996.44 1705.49C3996.44 1689.75 3997.77 1676.63 4000.42 1666.13L4178.64 1666.21C4181.27 1676.71 4182.59 1689.83 4182.58 1705.58C4182.57 1720.67 4181.25 1733.79 4178.6 1744.94L4218.21 1744.96C4220.84 1755.45 4222.16 1768.58 4222.15 1784.32C4222.14 1799.41 4220.82 1812.53 4218.17 1823.68C4220.81 1834.18 4222.12 1847.3 4222.12 1863.05C4222.11 1878.14 4220.78 1891.26 4218.14 1902.41C4220.77 1912.91 4222.09 1926.03 4222.08 1941.77C4222.07 1956.86 4220.75 1969.98 4218.1 1981.13L4257.71 1981.15Z" fill="#650000"/>
<mask id="mask0_0_1" style="mask-type:alpha" maskUnits="userSpaceOnUse" x="2351" y="1508" width="1911" height="553">
<path d="M2672.6 1980.15C2675.24 1990.63 2676.56 2003.74 2676.56 2019.46C2676.56 2034.52 2675.24 2047.62 2672.6 2058.75L2355.84 2058.45C2353.19 2047.31 2351.87 2034.21 2351.87 2019.15C2351.87 2003.43 2353.19 1990.33 2355.83 1979.85L2672.6 1980.15Z" fill="#650000"/>
<path d="M3068.91 1587.52C3071.55 1598 3072.88 1611.11 3072.88 1626.83C3072.88 1641.89 3071.56 1654.99 3068.92 1666.12C3071.56 1676.61 3072.88 1689.71 3072.88 1705.43C3072.88 1720.49 3071.56 1733.59 3068.92 1744.72C3071.57 1755.21 3072.89 1768.31 3072.89 1784.03C3072.89 1799.09 3071.57 1812.19 3068.93 1823.33C3071.57 1833.81 3072.89 1846.91 3072.89 1862.63C3072.89 1877.7 3071.57 1890.8 3068.93 1901.93C3071.58 1912.41 3072.9 1925.51 3072.9 1941.23C3072.9 1956.3 3071.58 1969.4 3068.94 1980.53C3071.58 1991.01 3072.9 2004.11 3072.9 2019.83C3072.9 2034.9 3071.58 2048 3068.95 2059.13L2989.75 2059.06C2987.11 2047.92 2985.79 2034.82 2985.79 2019.75C2985.79 2004.03 2987.11 1990.93 2989.75 1980.45L2960.05 1980.43C2957.41 1969.29 2956.09 1956.19 2956.09 1941.12C2956.09 1925.4 2957.41 1912.3 2960.05 1901.82L2989.74 1901.85C2987.1 1890.71 2985.78 1877.61 2985.78 1862.55C2985.78 1846.83 2987.1 1833.73 2989.74 1823.25L2960.04 1823.22C2957.4 1812.08 2956.08 1798.98 2956.08 1783.92C2956.08 1768.2 2957.4 1755.1 2960.04 1744.62L2989.73 1744.65C2987.09 1733.51 2985.77 1720.41 2985.77 1705.34C2985.77 1689.62 2987.09 1676.53 2989.73 1666.05C2987.09 1654.91 2985.77 1641.81 2985.77 1626.74C2985.76 1611.02 2987.08 1597.92 2989.72 1587.45C2987.08 1576.31 2985.76 1563.21 2985.76 1548.14C2985.76 1532.42 2987.08 1519.32 2989.72 1508.84L3068.91 1508.92C3071.55 1519.4 3072.87 1532.5 3072.87 1548.22C3072.87 1563.29 3071.55 1576.39 3068.91 1587.52ZM2944.2 1705.31C2944.2 1720.37 2942.88 1733.47 2940.24 1744.6L2841.25 1744.51C2843.89 1754.99 2845.21 1768.09 2845.21 1783.81C2845.21 1798.88 2843.89 1811.98 2841.25 1823.11L2811.56 1823.08C2811.56 1823.08 2815.52 1846.67 2815.52 1862.39C2815.52 1877.45 2814.2 1890.55 2811.56 1901.68L2841.26 1901.71C2843.9 1912.19 2845.22 1925.3 2845.22 1941.02C2845.22 1956.08 2843.9 1969.18 2841.26 1980.31L2940.25 1980.41C2942.89 1990.89 2944.22 2003.99 2944.22 2019.71C2944.22 2034.78 2942.9 2047.88 2940.26 2059.01L2831.37 2058.9C2828.73 2047.77 2827.41 2034.67 2827.41 2019.6C2827.41 2003.88 2828.73 1990.78 2831.37 1980.3L2781.87 1980.26C2779.23 1969.12 2777.91 1956.02 2777.91 1940.95C2777.91 1925.23 2779.23 1912.13 2781.87 1901.65L2752.17 1901.63C2749.53 1890.49 2748.21 1877.39 2748.21 1862.32C2748.21 1846.6 2749.52 1833.5 2752.16 1823.02L2781.86 1823.05C2779.22 1811.92 2777.9 1798.81 2777.9 1783.75C2777.9 1768.03 2779.22 1754.93 2781.86 1744.45L2831.35 1744.5C2828.71 1733.36 2827.39 1720.26 2827.39 1705.19C2827.39 1689.47 2828.71 1676.37 2831.35 1665.9L2940.23 1666C2942.87 1676.48 2944.19 1689.59 2944.2 1705.31Z" fill="#650000"/>
<path d="M3465.28 1980.91C3467.92 1991.39 3469.25 2004.49 3469.25 2020.21C3469.25 2035.28 3467.93 2048.38 3465.29 2059.51L3386.1 2059.43C3383.46 2048.3 3382.14 2035.19 3382.14 2020.13C3382.13 2004.41 3383.45 1991.31 3386.09 1980.83L3346.5 1980.79C3343.86 1969.66 3342.54 1956.55 3342.53 1941.49C3342.53 1925.77 3343.85 1912.67 3346.49 1902.19L3227.7 1902.08C3230.35 1912.56 3231.67 1925.66 3231.67 1941.38C3231.67 1956.45 3230.35 1969.55 3227.71 1980.68L3346.5 1980.79C3349.14 1991.28 3350.46 2004.38 3350.46 2020.1C3350.46 2035.16 3349.14 2048.26 3346.5 2059.4L3188.12 2059.24C3185.48 2048.11 3184.16 2035.01 3184.16 2019.94C3184.16 2004.22 3185.48 1991.12 3188.11 1980.64L3148.52 1980.61C3145.88 1969.47 3144.56 1956.37 3144.56 1941.3C3144.56 1925.58 3145.87 1912.48 3148.51 1902L3188.11 1902.04C3185.47 1890.9 3184.15 1877.8 3184.15 1862.74C3184.15 1847.02 3185.46 1833.92 3188.1 1823.44L3346.49 1823.59C3343.85 1812.45 3342.53 1799.35 3342.52 1784.29C3342.52 1768.57 3343.84 1755.47 3346.48 1744.99L3207.9 1744.86C3205.26 1733.72 3203.94 1720.62 3203.93 1705.55C3203.93 1689.83 3205.25 1676.73 3207.89 1666.26L3386.07 1666.43C3388.71 1676.91 3390.03 1690.01 3390.03 1705.73C3390.04 1720.8 3388.72 1733.89 3386.08 1745.03L3425.67 1745.06C3428.31 1755.55 3429.63 1768.65 3429.64 1784.37C3429.64 1799.43 3428.32 1812.53 3425.68 1823.67C3428.32 1834.15 3429.64 1847.25 3429.64 1862.97C3429.64 1878.04 3428.32 1891.14 3425.68 1902.27C3428.32 1912.75 3429.64 1925.85 3429.65 1941.57C3429.65 1956.64 3428.33 1969.74 3425.69 1980.87L3465.28 1980.91Z" fill="#650000"/>
<path d="M3822.03 1981.25C3824.67 1991.73 3825.99 2004.83 3825.99 2020.55C3826 2035.62 3824.68 2048.72 3822.04 2059.85L3663.65 2059.7C3661.01 2048.56 3659.69 2035.46 3659.69 2020.39C3659.69 2004.67 3661.01 1991.57 3663.65 1981.1L3624.05 1981.06C3621.41 1969.92 3620.09 1956.82 3620.09 1941.75C3620.09 1926.03 3621.41 1912.93 3624.05 1902.46C3621.41 1891.32 3620.09 1878.22 3620.09 1863.15C3620.09 1847.43 3621.4 1834.33 3624.04 1823.86C3621.4 1812.72 3620.08 1799.62 3620.08 1784.55C3620.08 1768.83 3621.4 1755.73 3624.04 1745.25L3544.85 1745.18C3542.21 1734.04 3540.89 1720.94 3540.88 1705.87C3540.88 1690.15 3542.2 1677.05 3544.84 1666.58L3624.03 1666.65C3621.39 1655.51 3620.07 1642.41 3620.07 1627.35C3620.07 1611.63 3621.39 1598.53 3624.03 1588.05C3621.39 1576.91 3620.07 1563.81 3620.07 1548.75C3620.06 1533.03 3621.38 1519.93 3624.02 1509.45L3703.21 1509.52C3705.85 1520.01 3707.18 1533.11 3707.18 1548.83C3707.18 1563.89 3705.86 1576.99 3703.22 1588.13C3705.86 1598.61 3707.18 1611.71 3707.18 1627.43C3707.18 1642.5 3705.86 1655.6 3703.22 1666.73L3822.01 1666.84C3824.65 1677.32 3825.97 1690.43 3825.97 1706.15C3825.98 1721.21 3824.66 1734.31 3822.02 1745.44L3703.23 1745.33C3705.87 1755.81 3707.19 1768.91 3707.19 1784.63C3707.19 1799.7 3705.87 1812.8 3703.24 1823.93C3705.88 1834.41 3707.2 1847.52 3707.2 1863.24C3707.2 1878.3 3705.88 1891.4 3703.24 1902.53C3705.88 1913.02 3707.2 1926.12 3707.2 1941.84C3707.2 1956.9 3705.88 1970 3703.25 1981.13L3822.03 1981.25Z" fill="#650000"/>
<path d="M4257.97 1981.66C4260.61 1992.15 4261.93 2005.25 4261.93 2020.97C4261.94 2036.03 4260.62 2049.13 4257.98 2060.26L4178.79 2060.19C4176.15 2049.05 4174.82 2035.95 4174.82 2020.88C4174.82 2005.16 4176.14 1992.06 4178.78 1981.59L4139.19 1981.55C4136.54 1970.41 4135.22 1957.31 4135.22 1942.24C4135.22 1926.52 4136.54 1913.43 4139.18 1902.95L4020.39 1902.83C4023.03 1913.32 4024.35 1926.42 4024.36 1942.14C4024.36 1957.2 4023.04 1970.3 4020.4 1981.44L4139.19 1981.55C4141.83 1992.03 4143.15 2005.13 4143.15 2020.85C4143.15 2035.92 4141.83 2049.02 4139.19 2060.15L3980.81 2060C3978.17 2048.86 3976.85 2035.76 3976.85 2020.7C3976.84 2004.98 3978.16 1991.88 3980.8 1981.4L3941.21 1981.36C3938.57 1970.22 3937.25 1957.12 3937.24 1942.06C3937.24 1926.34 3938.56 1913.24 3941.2 1902.76L3980.8 1902.8C3978.16 1891.66 3976.84 1878.56 3976.83 1863.49C3976.83 1847.77 3978.15 1834.67 3980.79 1824.2L4139.17 1824.35C4136.53 1813.21 4135.21 1800.11 4135.21 1785.04C4135.21 1769.32 4136.53 1756.22 4139.17 1745.74L4000.58 1745.61C3997.94 1734.47 3996.62 1721.37 3996.62 1706.31C3996.62 1690.59 3997.94 1677.49 4000.58 1667.01L4178.76 1667.18C4181.4 1677.66 4182.72 1690.77 4182.72 1706.49C4182.72 1721.55 4181.4 1734.65 4178.77 1745.78L4218.36 1745.82C4221 1756.3 4222.32 1769.4 4222.32 1785.12C4222.32 1800.19 4221.01 1813.29 4218.37 1824.42C4221.01 1834.9 4222.33 1848.01 4222.33 1863.73C4222.33 1878.79 4221.01 1891.89 4218.37 1903.02C4221.01 1913.51 4222.33 1926.61 4222.33 1942.33C4222.33 1957.39 4221.02 1970.49 4218.38 1981.62L4257.97 1981.66Z" fill="#650000"/>
</mask>
<g mask="url(#mask0_0_1)">
<path d="M2455.61 1901.12L4537.44 1901.43L4537.51 1979.65L2455.68 1979.34L2455.61 1901.12Z" fill="#D9D9D9" fill-opacity="0.5"/>
<path d="M2472.51 1744.65L4511.69 1744.42L4511.78 1821.73L2472.6 1821.96L2472.51 1744.65Z" fill="#D9D9D9" fill-opacity="0.5"/>
<path d="M2478.69 1583.28L4517.86 1589.95L4517.68 1669.18L2478.51 1662.5L2478.69 1583.28Z" fill="#D9D9D9" fill-opacity="0.5"/>
</g>
<ellipse cx="885.5" cy="892" rx="796.5" ry="797" fill="#FF33DF"/>
<path d="M1351.46 912.001C1400.83 912.001 1440 897.068 1468.98 867.201C1497.96 837.334 1512.44 801.067 1512.44 758.401C1512.44 714.667 1498.49 682.134 1470.59 660.8C1443.76 638.4 1408.88 627.2 1365.95 627.2L1306.39 632.826L1280.23 906.826L1351.46 912.001ZM1452.88 1116.8H1253.26L1225.89 1396.8H911.973L815.383 427.2H1533.37C1646.06 427.2 1737.29 456 1807.05 513.6C1877.88 570.133 1913.3 651.734 1913.3 758.401C1913.3 823.467 1899.88 880.001 1873.05 928.001C1847.29 976.001 1811.88 1013.34 1766.8 1040C1679.87 1091.2 1575.23 1116.8 1452.88 1116.8Z" fill="#FEDC4C"/>
<path d="M2443.2 660.8L2470.56 651.2L2415.83 1396.8H2111.57L2085.81 1024L2060.06 651.2C2121.23 675.734 2186.16 688 2254.85 688C2324.61 688 2387.39 678.934 2443.2 660.8ZM2264.51 617.6C2210.84 617.6 2165.77 601.6 2129.28 569.6C2092.79 537.6 2074.54 496 2074.54 444.8C2074.54 392.533 2092.25 350.933 2127.67 320C2164.16 288 2209.23 272 2262.9 272C2317.63 272 2363.24 288 2399.73 320C2436.22 352 2454.47 393.6 2454.47 444.8C2454.47 496 2436.22 537.6 2399.73 569.6C2363.24 601.6 2318.17 617.6 2264.51 617.6Z" fill="#FEDC4C"/>
<path d="M2604.47 1396.8V1262.4L2862.4 875.326L2598.03 912.001L2638.28 638.4H3332.12V780.801L3122.99 1162.83L3327.29 1128V1396.8H2604.47Z" fill="#FEDC4C"/>
<path d="M3484.85 1396.8V1262.4L3725.67 889.326L3478.41 912.001L3518.66 638.4H4212.5V780.801L3994.32 1162.83L4207.67 1128V1396.8H3484.85Z" fill="#FEDC4C"/>
<path fill-rule="evenodd" clip-rule="evenodd" d="M1432.55 709.943C1431.84 709.402 1431.15 708.845 1430.46 708.274C1418.52 698.306 1395.1 690.787 1367.34 689.422C1362.2 689.169 1357.88 693.115 1357.39 698.244L1343.86 839.045C1343.3 844.918 1347.92 850.028 1353.81 849.671C1384.76 847.798 1410.56 838.091 1424.07 824.165C1441.49 806.213 1450.06 785.52 1450.06 758.401C1450.06 728.605 1441.32 716.642 1432.55 709.943ZM1285.19 912.001C1279.29 912.001 1274.67 906.919 1275.24 901.045L1300.68 636.244C1301.18 631.115 1305.49 627.2 1310.64 627.2H1365.95C1408.88 627.2 1443.76 638.4 1470.59 660.8C1498.49 682.134 1512.44 714.667 1512.44 758.401C1512.44 801.067 1497.95 837.334 1468.98 867.201C1440 897.068 1400.83 912.001 1351.46 912.001H1285.19ZM1533.37 427.2C1646.06 427.2 1737.28 456 1807.04 513.6C1877.88 570.133 1913.3 651.734 1913.3 758.401C1913.3 823.467 1899.88 880.001 1873.05 928.001C1847.29 976.001 1811.87 1013.34 1766.8 1040C1679.87 1091.2 1575.23 1116.8 1452.88 1116.8H1271.4C1261.11 1116.8 1252.49 1124.61 1251.49 1134.86L1227.66 1378.75C1226.65 1388.99 1218.04 1396.8 1207.75 1396.8H930.079C919.801 1396.8 911.196 1389.01 910.177 1378.79L817.571 449.182C816.399 437.411 825.644 427.2 837.473 427.2H1533.37ZM1309.87 1178.8L1287.98 1402.8C1284.87 1434.57 1258.01 1458.8 1225.89 1458.8H911.972C879.9 1458.8 853.054 1434.63 849.894 1402.91L753.304 433.309C751.568 415.888 757.324 398.549 769.149 385.575C780.975 372.601 797.768 365.2 815.382 365.2H1533.37C1656.79 365.2 1763.1 396.888 1846.51 465.583C1934.55 536.061 1975.68 636.93 1975.68 758.401C1975.68 831.856 1960.52 898.974 1927.84 957.64C1896.99 1014.95 1853.85 1060.66 1798.71 1093.28L1798.6 1093.34C1700.2 1151.3 1584.06 1178.8 1452.88 1178.8H1309.87ZM2406.55 671.162C2419.08 668.12 2431.3 664.666 2443.2 660.8V660.8C2456.12 656.269 2469.44 666.471 2468.44 680.124L2417.19 1378.27C2416.42 1388.72 2407.72 1396.8 2397.24 1396.8H2130.24C2119.72 1396.8 2111.01 1388.67 2110.28 1378.18L2062.25 683.01C2061.24 668.293 2075.99 657.513 2090 662.132C2101.22 665.831 2112.56 669.133 2124.02 672.038C2166 682.68 2209.61 688 2254.85 688C2309.73 688 2360.3 682.388 2406.55 671.162ZM2061.88 589.226C2028.62 548.873 2012.16 499.743 2012.16 444.8C2012.16 377.015 2035.94 317.596 2086.46 273.457C2135.53 230.445 2195.74 210 2262.89 210C2330.8 210 2391.68 230.255 2441 273.51C2491.78 318.039 2516.85 376.993 2516.85 444.8C2516.85 499.775 2500.37 548.93 2467.07 589.296C2481.74 588.481 2496.45 592.834 2508.42 601.924C2525.15 614.621 2534.31 634.847 2532.78 655.712L2478.05 1401.31C2475.67 1433.72 2448.52 1458.8 2415.83 1458.8H2111.57C2078.78 1458.8 2051.58 1433.57 2049.34 1401.05L1997.82 655.448C1996.35 634.138 2006.02 613.575 2023.41 601.027C2034.73 592.856 2048.29 588.833 2061.88 589.226ZM2127.67 320C2092.25 350.933 2074.54 392.533 2074.54 444.8C2074.54 496 2092.79 537.6 2129.28 569.6C2165.77 601.6 2210.84 617.6 2264.5 617.6C2318.17 617.6 2363.24 601.6 2399.73 569.6C2436.22 537.6 2454.47 496 2454.47 444.8C2454.47 393.6 2436.22 352 2399.73 320C2363.24 288 2317.63 272 2262.89 272C2209.23 272 2164.16 288 2127.67 320ZM2604.47 1458.8C2570.02 1458.8 2542.09 1431.04 2542.09 1396.8V1262.4C2542.09 1249.44 2546.18 1236.81 2553.78 1226.27L2758.6 942.378L2610.64 972.722C2590.71 976.809 2570.03 970.979 2555.23 957.102C2540.42 943.224 2533.36 923.044 2536.31 903.032L2576.55 629.431C2581.03 598.978 2607.31 576.4 2638.28 576.4H3332.12C3366.57 576.4 3394.5 604.159 3394.5 638.4V780.801C3394.5 792.749 3391.03 804.442 3384.5 814.474L3196.99 1102.58L3309.14 1068.68C3328.05 1062.97 3348.56 1066.5 3364.43 1078.19C3380.31 1089.88 3389.67 1108.36 3389.67 1128V1396.8C3389.67 1431.04 3361.74 1458.8 3327.29 1458.8H2604.47ZM3104.43 1195.36C3086.57 1200.76 3071.7 1180.94 3081.88 1165.31L3328.88 785.775C3330.99 782.529 3332.12 778.739 3332.12 774.866V658.4C3332.12 647.355 3323.16 638.4 3312.12 638.4H2655.55C2645.63 638.4 2637.21 645.674 2635.76 655.49L2602.18 883.764C2600.17 897.492 2612.4 909.055 2625.99 906.267L2852.04 859.907C2869.89 856.245 2882.94 876.421 2872.28 891.201L2608.25 1257.16C2605.79 1260.57 2604.47 1264.66 2604.47 1268.86V1376.8C2604.47 1387.85 2613.42 1396.8 2624.47 1396.8H3307.29C3318.33 1396.8 3327.29 1387.85 3327.29 1376.8V1154.94C3327.29 1141.53 3314.34 1131.92 3301.5 1135.8L3104.43 1195.36ZM3484.85 1458.8C3450.4 1458.8 3422.47 1431.04 3422.47 1396.8V1262.4C3422.47 1249.44 3426.56 1236.81 3434.16 1226.27L3638.98 942.378L3491.02 972.722C3471.09 976.809 3450.41 970.979 3435.61 957.102C3420.81 943.224 3413.74 923.044 3416.69 903.032L3456.93 629.431C3461.41 598.978 3487.69 576.4 3518.66 576.4H4212.5C4246.95 576.4 4274.88 604.159 4274.88 638.4V780.801C4274.88 792.749 4271.41 804.442 4264.88 814.474L4077.38 1102.58L4189.52 1068.68C4208.43 1062.97 4228.94 1066.5 4244.81 1078.19C4260.69 1089.88 4270.05 1108.36 4270.05 1128V1396.8C4270.05 1431.04 4242.12 1458.8 4207.67 1458.8H3484.85ZM3984.81 1195.36C3966.95 1200.76 3952.08 1180.94 3962.26 1165.31L4209.26 785.775C4211.37 782.529 4212.5 778.739 4212.5 774.866V658.4C4212.5 647.355 4203.55 638.4 4192.5 638.4H3535.93C3526.01 638.4 3517.59 645.674 3516.14 655.49L3482.57 883.764C3480.55 897.492 3492.78 909.055 3506.37 906.267L3732.42 859.907C3750.28 856.245 3763.32 876.421 3752.66 891.201L3488.63 1257.16C3486.17 1260.57 3484.85 1264.66 3484.85 1268.86V1376.8C3484.85 1387.85 3493.81 1396.8 3504.85 1396.8H4187.67C4198.72 1396.8 4207.67 1387.85 4207.67 1376.8V1154.94C4207.67 1141.53 4194.72 1131.92 4181.88 1135.8L3984.81 1195.36Z" fill="#650000"/>
<path d="M42 41H4323V39H42V41ZM4324 42V2102H4326V42H4324ZM4323 2103H42.0001V2105H4323V2103ZM41 2102V42H39V2102H41ZM42.0001 2103C41.4477 2103 41 2102.55 41 2102H39C39 2103.66 40.3433 2105 42.0001 2105V2103ZM4324 2102C4324 2102.55 4323.55 2103 4323 2103V2105C4324.66 2105 4326 2103.66 4326 2102H4324ZM4323 41C4323.55 41 4324 41.4478 4324 42H4326C4326 40.3431 4324.66 39 4323 39V41ZM42 39C40.3431 39 39 40.3431 39 42H41C41 41.4477 41.4477 41 42 41V39Z" fill="black" fill-opacity="0.1"/>
<rect x="40" y="8" width="122.375" height="26" rx="2" fill="#E5E5E5"/>
<rect x="40.5" y="8.5" width="121.375" height="25" rx="1.5" stroke="black" stroke-opacity="0.14902"/>
<path d="M49.7969 16V16.8594H45.9375V24H44.9688V16H49.7969ZM52.7383 24.125C52.1966 24.125 51.7214 23.9961 51.3125 23.7383C50.9063 23.4805 50.5885 23.1198 50.3594 22.6562C50.1328 22.1927 50.0195 21.651 50.0195 21.0312C50.0195 20.4062 50.1328 19.8607 50.3594 19.3945C50.5885 18.9284 50.9063 18.5664 51.3125 18.3086C51.7214 18.0508 52.1966 17.9219 52.7383 17.9219C53.2799 17.9219 53.7539 18.0508 54.1602 18.3086C54.569 18.5664 54.8867 18.9284 55.1133 19.3945C55.3424 19.8607 55.457 20.4062 55.457 21.0312C55.457 21.651 55.3424 22.1927 55.1133 22.6562C54.8867 23.1198 54.569 23.4805 54.1602 23.7383C53.7539 23.9961 53.2799 24.125 52.7383 24.125ZM52.7383 23.2969C53.1497 23.2969 53.4883 23.1914 53.7539 22.9805C54.0195 22.7695 54.2161 22.4922 54.3438 22.1484C54.4714 21.8047 54.5352 21.4323 54.5352 21.0312C54.5352 20.6302 54.4714 20.2565 54.3438 19.9102C54.2161 19.5638 54.0195 19.2839 53.7539 19.0703C53.4883 18.8568 53.1497 18.75 52.7383 18.75C52.3268 18.75 51.9883 18.8568 51.7227 19.0703C51.457 19.2839 51.2604 19.5638 51.1328 19.9102C51.0052 20.2565 50.9414 20.6302 50.9414 21.0312C50.9414 21.4323 51.0052 21.8047 51.1328 22.1484C51.2604 22.4922 51.457 22.7695 51.7227 22.9805C51.9883 23.1914 52.3268 23.2969 52.7383 23.2969ZM56.8643 26.25V18H57.7549V18.9531H57.8643C57.932 18.849 58.0257 18.7161 58.1455 18.5547C58.2679 18.3906 58.4424 18.2448 58.6689 18.1172C58.8981 17.987 59.208 17.9219 59.5986 17.9219C60.1038 17.9219 60.5492 18.0482 60.9346 18.3008C61.32 18.5534 61.6208 18.9115 61.8369 19.375C62.0531 19.8385 62.1611 20.3854 62.1611 21.0156C62.1611 21.651 62.0531 22.2018 61.8369 22.668C61.6208 23.1315 61.3213 23.4909 60.9385 23.7461C60.5557 23.9987 60.1143 24.125 59.6143 24.125C59.2288 24.125 58.9202 24.0612 58.6885 23.9336C58.4567 23.8034 58.2783 23.6562 58.1533 23.4922C58.0283 23.3255 57.932 23.1875 57.8643 23.0781H57.7861V26.25H56.8643ZM57.7705 21C57.7705 21.4531 57.8369 21.8529 57.9697 22.1992C58.1025 22.543 58.2965 22.8125 58.5518 23.0078C58.807 23.2005 59.1195 23.2969 59.4893 23.2969C59.8747 23.2969 60.1963 23.1953 60.4541 22.9922C60.7145 22.7865 60.9098 22.5104 61.04 22.1641C61.1729 21.8151 61.2393 21.4271 61.2393 21C61.2393 20.5781 61.1742 20.1979 61.0439 19.8594C60.9163 19.5182 60.7223 19.2487 60.4619 19.0508C60.2041 18.8503 59.8799 18.75 59.4893 18.75C59.1143 18.75 58.7992 18.8451 58.5439 19.0352C58.2887 19.2227 58.096 19.4857 57.9658 19.8242C57.8356 20.1602 57.7705 20.5521 57.7705 21ZM64.4893 22.6406L67.3799 18H68.4424V24H67.5205V19.3594L64.6455 24H63.5674V18H64.4893V22.6406ZM69.7559 22.4687H70.7402C70.7611 22.7396 70.8835 22.9453 71.1074 23.0859C71.334 23.2266 71.6283 23.2969 71.9902 23.2969C72.36 23.2969 72.6764 23.2214 72.9395 23.0703C73.2025 22.9167 73.334 22.6693 73.334 22.3281C73.334 22.1276 73.2845 21.9531 73.1855 21.8047C73.0866 21.6536 72.9473 21.5365 72.7676 21.4531C72.5879 21.3698 72.3757 21.3281 72.1309 21.3281H71.0996V20.5H72.1309C72.498 20.5 72.7689 20.4167 72.9434 20.25C73.1204 20.0833 73.209 19.875 73.209 19.625C73.209 19.3568 73.1139 19.1419 72.9238 18.9805C72.7337 18.8164 72.4642 18.7344 72.1152 18.7344C71.7637 18.7344 71.4707 18.8138 71.2363 18.9727C71.002 19.1289 70.8783 19.3307 70.8652 19.5781H69.8965C69.9069 19.2552 70.0059 18.9701 70.1934 18.7227C70.3809 18.4727 70.6361 18.2773 70.959 18.1367C71.2819 17.9935 71.6517 17.9219 72.0684 17.9219C72.4902 17.9219 72.8561 17.9961 73.166 18.1445C73.4785 18.2904 73.7194 18.4896 73.8887 18.7422C74.0605 18.9922 74.1465 19.276 74.1465 19.5937C74.1465 19.9323 74.0514 20.2057 73.8613 20.4141C73.6712 20.6224 73.4329 20.7708 73.1465 20.8594V20.9219C73.373 20.9375 73.5697 21.0104 73.7363 21.1406C73.9056 21.2682 74.0371 21.4362 74.1309 21.6445C74.2246 21.8503 74.2715 22.0781 74.2715 22.3281C74.2715 22.6927 74.1738 23.0104 73.9785 23.2812C73.7832 23.5495 73.515 23.7578 73.1738 23.9062C72.8327 24.0521 72.4434 24.125 72.0059 24.125C71.5814 24.125 71.2012 24.056 70.8652 23.918C70.5293 23.7773 70.2624 23.5833 70.0645 23.3359C69.8691 23.0859 69.7663 22.7969 69.7559 22.4687ZM78.0039 24.125C77.4622 24.125 76.987 23.9961 76.5781 23.7383C76.1719 23.4805 75.8542 23.1198 75.625 22.6562C75.3984 22.1927 75.2852 21.651 75.2852 21.0312C75.2852 20.4062 75.3984 19.8607 75.625 19.3945C75.8542 18.9284 76.1719 18.5664 76.5781 18.3086C76.987 18.0508 77.4622 17.9219 78.0039 17.9219C78.5456 17.9219 79.0195 18.0508 79.4258 18.3086C79.8346 18.5664 80.1523 18.9284 80.3789 19.3945C80.6081 19.8607 80.7227 20.4062 80.7227 21.0312C80.7227 21.651 80.6081 22.1927 80.3789 22.6562C80.1523 23.1198 79.8346 23.4805 79.4258 23.7383C79.0195 23.9961 78.5456 24.125 78.0039 24.125ZM78.0039 23.2969C78.4154 23.2969 78.7539 23.1914 79.0195 22.9805C79.2852 22.7695 79.4818 22.4922 79.6094 22.1484C79.737 21.8047 79.8008 21.4323 79.8008 21.0312C79.8008 20.6302 79.737 20.2565 79.6094 19.9102C79.4818 19.5638 79.2852 19.2839 79.0195 19.0703C78.7539 18.8568 78.4154 18.75 78.0039 18.75C77.5924 18.75 77.2539 18.8568 76.9883 19.0703C76.7227 19.2839 76.526 19.5638 76.3984 19.9102C76.2708 20.2565 76.207 20.6302 76.207 21.0312C76.207 21.4323 76.2708 21.8047 76.3984 22.1484C76.526 22.4922 76.7227 22.7695 76.9883 22.9805C77.2539 23.1914 77.5924 23.2969 78.0039 23.2969ZM86.1455 20.5781V21.4375H82.833V20.5781H86.1455ZM83.0518 18V24H82.1299V18H83.0518ZM86.8486 18V24H85.9268V18H86.8486ZM87.7158 18.8594V18H92.5908V18.8594H90.6221V24H89.7002V18.8594H87.7158ZM95.3896 24.1406C95.0094 24.1406 94.6644 24.069 94.3545 23.9258C94.0446 23.7799 93.7985 23.5703 93.6162 23.2969C93.4339 23.0208 93.3428 22.6875 93.3428 22.2969C93.3428 21.9531 93.4105 21.6745 93.5459 21.4609C93.6813 21.2448 93.8623 21.0755 94.0889 20.9531C94.3154 20.8307 94.5654 20.7396 94.8389 20.6797C95.1149 20.6172 95.3923 20.5677 95.6709 20.5313C96.0355 20.4844 96.3311 20.4492 96.5576 20.4258C96.7868 20.3997 96.9535 20.3568 97.0576 20.2969C97.1644 20.237 97.2178 20.1328 97.2178 19.9844V19.9531C97.2178 19.5677 97.1123 19.2682 96.9014 19.0547C96.693 18.8411 96.3766 18.7344 95.9521 18.7344C95.512 18.7344 95.167 18.8307 94.917 19.0234C94.667 19.2161 94.4912 19.4219 94.3896 19.6406L93.5146 19.3281C93.6709 18.9635 93.8792 18.6797 94.1396 18.4766C94.4027 18.2708 94.6891 18.1276 94.999 18.0469C95.3115 17.9635 95.6188 17.9219 95.9209 17.9219C96.1136 17.9219 96.335 17.9453 96.585 17.9922C96.8376 18.0365 97.0811 18.1289 97.3154 18.2695C97.5524 18.4102 97.749 18.6224 97.9053 18.9062C98.0615 19.1901 98.1396 19.5703 98.1396 20.0469V24H97.2178V23.1875H97.1709C97.1084 23.3177 97.0042 23.457 96.8584 23.6055C96.7126 23.7539 96.5186 23.8802 96.2764 23.9844C96.0342 24.0885 95.7386 24.1406 95.3896 24.1406ZM95.5303 23.3125C95.8949 23.3125 96.2021 23.2409 96.4521 23.0977C96.7048 22.9544 96.8949 22.7695 97.0225 22.543C97.1527 22.3164 97.2178 22.0781 97.2178 21.8281V20.9844C97.1787 21.0312 97.0928 21.0742 96.96 21.1133C96.8298 21.1497 96.6787 21.1823 96.5068 21.2109C96.3376 21.237 96.1722 21.2604 96.0107 21.2812C95.8519 21.2995 95.723 21.3151 95.624 21.3281C95.3844 21.3594 95.1605 21.4102 94.9521 21.4805C94.7464 21.5482 94.5798 21.651 94.4521 21.7891C94.3271 21.9245 94.2646 22.1094 94.2646 22.3437C94.2646 22.6641 94.3831 22.9062 94.6201 23.0703C94.8597 23.2318 95.1631 23.3125 95.5303 23.3125ZM99.291 24V23.1406H99.5098C99.6895 23.1406 99.8392 23.1055 99.959 23.0352C100.079 22.9622 100.175 22.8359 100.248 22.6562C100.324 22.474 100.381 22.2214 100.42 21.8984C100.462 21.5729 100.492 21.1589 100.51 20.6562L100.619 18H104.619V24H103.697V18.8594H101.494L101.4 21C101.38 21.4922 101.335 21.9258 101.268 22.3008C101.202 22.6732 101.102 22.9857 100.967 23.2383C100.834 23.4909 100.657 23.681 100.436 23.8086C100.214 23.9362 99.9368 24 99.6035 24H99.291ZM107.107 20.1719H108.826C109.529 20.1719 110.067 20.3503 110.439 20.707C110.812 21.0638 110.998 21.5156 110.998 22.0625C110.998 22.4219 110.915 22.7487 110.748 23.043C110.581 23.3346 110.337 23.5677 110.014 23.7422C109.691 23.9141 109.295 24 108.826 24H106.311V18H107.232V23.1406H108.826C109.191 23.1406 109.49 23.0443 109.725 22.8516C109.959 22.6589 110.076 22.4115 110.076 22.1094C110.076 21.7917 109.959 21.5326 109.725 21.332C109.49 21.1315 109.191 21.0312 108.826 21.0312H107.107V20.1719ZM116.417 20.5781V21.4375H113.104V20.5781H116.417ZM113.323 18V24H112.401V18H113.323ZM117.12 18V24H116.198V18H117.12ZM121.241 24.125C120.7 24.125 120.224 23.9961 119.815 23.7383C119.409 23.4805 119.091 23.1198 118.862 22.6562C118.636 22.1927 118.522 21.651 118.522 21.0312C118.522 20.4062 118.636 19.8607 118.862 19.3945C119.091 18.9284 119.409 18.5664 119.815 18.3086C120.224 18.0508 120.7 17.9219 121.241 17.9219C121.783 17.9219 122.257 18.0508 122.663 18.3086C123.072 18.5664 123.39 18.9284 123.616 19.3945C123.845 19.8607 123.96 20.4062 123.96 21.0312C123.96 21.651 123.845 22.1927 123.616 22.6562C123.39 23.1198 123.072 23.4805 122.663 23.7383C122.257 23.9961 121.783 24.125 121.241 24.125ZM121.241 23.2969C121.653 23.2969 121.991 23.1914 122.257 22.9805C122.522 22.7695 122.719 22.4922 122.847 22.1484C122.974 21.8047 123.038 21.4323 123.038 21.0312C123.038 20.6302 122.974 20.2565 122.847 19.9102C122.719 19.5638 122.522 19.2839 122.257 19.0703C121.991 18.8568 121.653 18.75 121.241 18.75C120.83 18.75 120.491 18.8568 120.226 19.0703C119.96 19.2839 119.763 19.5638 119.636 19.9102C119.508 20.2565 119.444 20.6302 119.444 21.0312C119.444 21.4323 119.508 21.8047 119.636 22.1484C119.763 22.4922 119.96 22.7695 120.226 22.9805C120.491 23.1914 120.83 23.2969 121.241 23.2969ZM127.883 24.125C127.305 24.125 126.806 23.9974 126.387 23.7422C125.97 23.4844 125.648 23.125 125.422 22.6641C125.198 22.2005 125.086 21.6615 125.086 21.0469C125.086 20.4323 125.198 19.8906 125.422 19.4219C125.648 18.9505 125.964 18.5833 126.367 18.3203C126.773 18.0547 127.247 17.9219 127.789 17.9219C128.102 17.9219 128.41 17.974 128.715 18.0781C129.02 18.1823 129.297 18.3516 129.547 18.5859C129.797 18.8177 129.996 19.125 130.145 19.5078C130.293 19.8906 130.367 20.362 130.367 20.9219V21.3125H125.742V20.5156H129.43C129.43 20.1771 129.362 19.875 129.227 19.6094C129.094 19.3437 128.904 19.1341 128.656 18.9805C128.411 18.8268 128.122 18.75 127.789 18.75C127.422 18.75 127.104 18.8411 126.836 19.0234C126.57 19.2031 126.366 19.4375 126.223 19.7266C126.079 20.0156 126.008 20.3255 126.008 20.6562V21.1875C126.008 21.6406 126.086 22.0247 126.242 22.3398C126.401 22.6523 126.621 22.8906 126.902 23.0547C127.184 23.2161 127.51 23.2969 127.883 23.2969C128.125 23.2969 128.344 23.263 128.539 23.1953C128.737 23.125 128.908 23.0208 129.051 22.8828C129.194 22.7422 129.305 22.5677 129.383 22.3594L130.273 22.6094C130.18 22.9115 130.022 23.1771 129.801 23.4062C129.579 23.6328 129.306 23.8099 128.98 23.9375C128.655 24.0625 128.289 24.125 127.883 24.125ZM134.332 24V23.1406H134.551C134.73 23.1406 134.88 23.1055 135 23.0352C135.12 22.9622 135.216 22.8359 135.289 22.6562C135.365 22.474 135.422 22.2214 135.461 21.8984C135.503 21.5729 135.533 21.1589 135.551 20.6562L135.66 18H139.66V24H138.738V18.8594H136.535L136.441 21C136.421 21.4922 136.376 21.9258 136.309 22.3008C136.243 22.6732 136.143 22.9857 136.008 23.2383C135.875 23.4909 135.698 23.681 135.477 23.8086C135.255 23.9362 134.978 24 134.645 24H134.332ZM143.789 24.125C143.247 24.125 142.772 23.9961 142.363 23.7383C141.957 23.4805 141.639 23.1198 141.41 22.6562C141.184 22.1927 141.07 21.651 141.07 21.0312C141.07 20.4062 141.184 19.8607 141.41 19.3945C141.639 18.9284 141.957 18.5664 142.363 18.3086C142.772 18.0508 143.247 17.9219 143.789 17.9219C144.331 17.9219 144.805 18.0508 145.211 18.3086C145.62 18.5664 145.938 18.9284 146.164 19.3945C146.393 19.8607 146.508 20.4062 146.508 21.0312C146.508 21.651 146.393 22.1927 146.164 22.6562C145.938 23.1198 145.62 23.4805 145.211 23.7383C144.805 23.9961 144.331 24.125 143.789 24.125ZM143.789 23.2969C144.201 23.2969 144.539 23.1914 144.805 22.9805C145.07 22.7695 145.267 22.4922 145.395 22.1484C145.522 21.8047 145.586 21.4323 145.586 21.0312C145.586 20.6302 145.522 20.2565 145.395 19.9102C145.267 19.5638 145.07 19.2839 144.805 19.0703C144.539 18.8568 144.201 18.75 143.789 18.75C143.378 18.75 143.039 18.8568 142.773 19.0703C142.508 19.2839 142.311 19.5638 142.184 19.9102C142.056 20.2565 141.992 20.6302 141.992 21.0312C141.992 21.4323 142.056 21.8047 142.184 22.1484C142.311 22.4922 142.508 22.7695 142.773 22.9805C143.039 23.1914 143.378 23.2969 143.789 23.2969ZM151.618 18V18.8594H148.837V24H147.915V18H151.618ZM155.09 24.125C154.548 24.125 154.073 23.9961 153.664 23.7383C153.258 23.4805 152.94 23.1198 152.711 22.6562C152.484 22.1927 152.371 21.651 152.371 21.0312C152.371 20.4062 152.484 19.8607 152.711 19.3945C152.94 18.9284 153.258 18.5664 153.664 18.3086C154.073 18.0508 154.548 17.9219 155.09 17.9219C155.632 17.9219 156.105 18.0508 156.512 18.3086C156.921 18.5664 157.238 18.9284 157.465 19.3945C157.694 19.8607 157.809 20.4062 157.809 21.0312C157.809 21.651 157.694 22.1927 157.465 22.6562C157.238 23.1198 156.921 23.4805 156.512 23.7383C156.105 23.9961 155.632 24.125 155.09 24.125ZM155.09 23.2969C155.501 23.2969 155.84 23.1914 156.105 22.9805C156.371 22.7695 156.568 22.4922 156.695 22.1484C156.823 21.8047 156.887 21.4323 156.887 21.0312C156.887 20.6302 156.823 20.2565 156.695 19.9102C156.568 19.5638 156.371 19.2839 156.105 19.0703C155.84 18.8568 155.501 18.75 155.09 18.75C154.678 18.75 154.34 18.8568 154.074 19.0703C153.809 19.2839 153.612 19.5638 153.484 19.9102C153.357 20.2565 153.293 20.6302 153.293 21.0312C153.293 21.4323 153.357 21.8047 153.484 22.1484C153.612 22.4922 153.809 22.7695 154.074 22.9805C154.34 23.1914 154.678 23.2969 155.09 23.2969Z" fill="black"/>
</svg>
