<svg width="3563" height="1899" viewBox="0 0 3563 1899" fill="none" xmlns="http://www.w3.org/2000/svg">
<g clip-path="url(#clip0_9_812)">
<path d="M1542.89 1785.91C1542.89 1793.5 1542.23 1800.1 1540.9 1805.71C1542.23 1810.99 1542.89 1817.59 1542.89 1825.51C1542.89 1833.1 1542.23 1839.7 1540.9 1845.31H1491.09C1489.77 1839.7 1489.1 1833.1 1489.1 1825.51C1489.1 1817.59 1489.77 1810.99 1491.09 1805.71C1489.77 1800.1 1489.1 1793.5 1489.1 1785.91C1489.1 1777.99 1489.77 1771.39 1491.09 1766.11H1540.9C1542.23 1771.39 1542.89 1777.99 1542.89 1785.91Z" fill="#650000"/>
<path d="M1382.91 1785.91C1382.91 1793.5 1382.25 1800.1 1380.92 1805.71C1382.25 1810.99 1382.91 1817.59 1382.91 1825.51C1382.91 1833.1 1382.25 1839.7 1380.92 1845.31H1331.12C1329.79 1839.7 1329.12 1833.1 1329.12 1825.51C1329.12 1817.59 1329.79 1810.99 1331.12 1805.71C1329.79 1800.1 1329.12 1793.5 1329.12 1785.91C1329.12 1777.99 1329.79 1771.39 1331.12 1766.11H1380.92C1382.25 1771.39 1382.91 1777.99 1382.91 1785.91Z" fill="#650000"/>
<path d="M1169.61 1785.91C1169.61 1793.5 1168.95 1800.1 1167.62 1805.71C1168.95 1810.99 1169.61 1817.59 1169.61 1825.51C1169.61 1833.1 1168.95 1839.7 1167.62 1845.31H1117.81C1116.48 1839.7 1115.82 1833.1 1115.82 1825.51C1115.82 1817.59 1116.48 1810.99 1117.81 1805.71C1116.48 1800.1 1115.82 1793.5 1115.82 1785.91C1115.82 1777.99 1116.48 1771.39 1117.81 1766.11H1167.62C1168.95 1771.39 1169.61 1777.99 1169.61 1785.91Z" fill="#650000"/>
<path d="M902.979 1785.91C902.979 1793.5 902.315 1800.1 900.987 1805.71C902.315 1810.99 902.979 1817.59 902.979 1825.51C902.979 1833.1 902.315 1839.7 900.987 1845.31H851.183C849.854 1839.7 849.19 1833.1 849.19 1825.51C849.19 1817.59 849.854 1810.99 851.183 1805.71C849.854 1800.1 849.19 1793.5 849.19 1785.91C849.19 1777.99 849.854 1771.39 851.183 1766.11H900.987C902.315 1771.39 902.979 1777.99 902.979 1785.91Z" fill="#650000"/>
<path d="M1915.98 1765.99C1918.62 1776.49 1919.93 1789.61 1919.93 1805.36C1919.92 1820.45 1918.59 1833.57 1915.95 1844.72L1599.11 1844.58C1596.47 1833.42 1595.16 1820.3 1595.16 1805.21C1595.17 1789.47 1596.5 1776.35 1599.14 1765.85L1915.98 1765.99Z" fill="#650000"/>
<path d="M2312.6 1372.54C2315.23 1383.04 2316.55 1396.16 2316.54 1411.9C2316.53 1426.99 2315.21 1440.11 2312.56 1451.27C2315.2 1461.76 2316.51 1474.89 2316.5 1490.63C2316.5 1505.72 2315.17 1518.84 2312.53 1529.99C2315.16 1540.49 2316.48 1553.61 2316.47 1569.36C2316.46 1584.45 2315.14 1597.57 2312.49 1608.72C2315.13 1619.22 2316.44 1632.34 2316.43 1648.08C2316.43 1663.17 2315.1 1676.29 2312.45 1687.44C2315.09 1697.94 2316.4 1711.06 2316.4 1726.81C2316.39 1741.9 2315.06 1755.02 2312.42 1766.17C2315.06 1776.67 2316.37 1789.79 2316.36 1805.53C2316.36 1820.62 2315.03 1833.74 2312.38 1844.9L2233.17 1844.86C2230.54 1833.71 2229.22 1820.58 2229.23 1805.5C2229.24 1789.75 2230.56 1776.63 2233.21 1766.13L2203.51 1766.12C2200.87 1754.97 2199.56 1741.85 2199.56 1726.76C2199.57 1711.01 2200.9 1697.89 2203.54 1687.4L2233.24 1687.41C2230.61 1676.25 2229.3 1663.13 2229.3 1648.04C2229.31 1632.3 2230.64 1619.18 2233.28 1608.68L2203.58 1608.67C2200.94 1597.52 2199.63 1584.39 2199.63 1569.3C2199.64 1553.56 2200.97 1540.44 2203.61 1529.94L2233.32 1529.96C2230.68 1518.8 2229.37 1505.68 2229.37 1490.59C2229.38 1474.85 2230.71 1461.73 2233.35 1451.23C2230.72 1440.08 2229.4 1426.96 2229.41 1411.87C2229.42 1396.12 2230.74 1383 2233.39 1372.51C2230.75 1361.35 2229.44 1348.23 2229.44 1333.14C2229.45 1317.4 2230.78 1304.27 2233.42 1293.78L2312.63 1293.81C2315.27 1304.31 2316.58 1317.43 2316.57 1333.18C2316.57 1348.27 2315.24 1361.39 2312.6 1372.54ZM2187.79 1490.57C2187.78 1505.66 2186.45 1518.78 2183.81 1529.93L2084.8 1529.89C2087.43 1540.39 2088.75 1553.51 2088.74 1569.26C2088.73 1584.34 2087.41 1597.47 2084.76 1608.62L2055.06 1608.6C2055.06 1608.6 2059.01 1632.22 2059 1647.97C2058.99 1663.06 2057.67 1676.18 2055.02 1687.33L2084.73 1687.34C2087.36 1697.84 2088.68 1710.96 2088.67 1726.71C2088.66 1741.8 2087.34 1754.92 2084.69 1766.07L2183.7 1766.11C2186.34 1776.61 2187.65 1789.73 2187.65 1805.48C2187.64 1820.57 2186.31 1833.69 2183.67 1844.84L2074.75 1844.79C2072.12 1833.64 2070.8 1820.51 2070.81 1805.43C2070.82 1789.68 2072.14 1776.56 2074.79 1766.06L2025.28 1766.04C2022.65 1754.89 2021.33 1741.77 2021.34 1726.68C2021.35 1710.93 2022.67 1697.81 2025.32 1687.32L1995.61 1687.3C1992.98 1676.15 1991.67 1663.03 1991.67 1647.94C1991.68 1632.19 1993 1619.07 1995.65 1608.58L2025.35 1608.59C2022.72 1597.44 2021.4 1584.31 2021.41 1569.23C2021.42 1553.48 2022.74 1540.36 2025.39 1529.86L2074.9 1529.89C2072.26 1518.73 2070.95 1505.61 2070.95 1490.52C2070.96 1474.78 2072.29 1461.66 2074.93 1451.16L2183.84 1451.21C2186.48 1461.71 2187.79 1474.83 2187.79 1490.57Z" fill="#650000"/>
<path d="M2708.86 1766.35C2711.49 1776.84 2712.81 1789.97 2712.8 1805.71C2712.79 1820.8 2711.47 1833.92 2708.82 1845.07L2629.61 1845.04C2626.98 1833.88 2625.66 1820.76 2625.67 1805.67C2625.68 1789.93 2627 1776.81 2629.65 1766.31L2590.04 1766.29C2587.41 1755.14 2586.09 1742.02 2586.1 1726.93C2586.11 1711.18 2587.43 1698.06 2590.08 1687.57L2471.26 1687.51C2473.9 1698.01 2475.21 1711.13 2475.2 1726.88C2475.2 1741.97 2473.87 1755.09 2471.23 1766.24L2590.04 1766.29C2592.68 1776.79 2593.99 1789.91 2593.98 1805.66C2593.98 1820.75 2592.65 1833.87 2590.01 1845.02L2431.59 1844.95C2428.95 1833.79 2427.64 1820.67 2427.64 1805.58C2427.65 1789.84 2428.98 1776.72 2431.62 1766.22L2392.02 1766.2C2389.38 1755.05 2388.07 1741.93 2388.07 1726.84C2388.08 1711.1 2389.41 1697.97 2392.05 1687.48L2431.66 1687.5C2429.02 1676.34 2427.71 1663.22 2427.71 1648.13C2427.72 1632.39 2429.05 1619.27 2431.69 1608.77L2590.11 1608.84C2587.48 1597.69 2586.16 1584.57 2586.17 1569.48C2586.18 1553.73 2587.5 1540.61 2590.15 1530.12L2451.53 1530.05C2448.89 1518.9 2447.58 1505.78 2447.59 1490.69C2447.59 1474.94 2448.92 1461.82 2451.57 1451.33L2629.79 1451.41C2632.42 1461.91 2633.74 1475.03 2633.73 1490.77C2633.72 1505.86 2632.4 1518.98 2629.75 1530.13L2669.36 1530.15C2671.99 1540.65 2673.31 1553.77 2673.3 1569.52C2673.29 1584.6 2671.97 1597.72 2669.32 1608.88C2671.96 1619.37 2673.27 1632.5 2673.26 1648.24C2673.26 1663.33 2671.93 1676.45 2669.29 1687.6C2671.92 1698.1 2673.24 1711.22 2673.23 1726.97C2673.22 1742.06 2671.9 1755.18 2669.25 1766.33L2708.86 1766.35Z" fill="#650000"/>
<path d="M3065.69 1766.5C3068.32 1777 3069.64 1790.12 3069.63 1805.87C3069.62 1820.96 3068.3 1834.08 3065.65 1845.23L2907.23 1845.16C2904.6 1834.01 2903.28 1820.88 2903.29 1805.8C2903.3 1790.05 2904.62 1776.93 2907.27 1766.43L2867.66 1766.42C2865.03 1755.26 2863.71 1742.14 2863.72 1727.05C2863.73 1711.31 2865.05 1698.19 2867.7 1687.69C2865.06 1676.54 2863.75 1663.41 2863.76 1648.33C2863.76 1632.58 2865.09 1619.46 2867.73 1608.96C2865.1 1597.81 2863.78 1584.69 2863.79 1569.6C2863.8 1553.85 2865.12 1540.73 2867.77 1530.24L2788.56 1530.2C2785.92 1519.05 2784.61 1505.93 2784.62 1490.84C2784.62 1475.09 2785.95 1461.97 2788.59 1451.48L2867.8 1451.51C2865.17 1440.36 2863.86 1427.24 2863.86 1412.15C2863.87 1396.4 2865.2 1383.28 2867.84 1372.79C2865.2 1361.63 2863.89 1348.51 2863.9 1333.42C2863.9 1317.68 2865.23 1304.56 2867.88 1294.06L2947.09 1294.1C2949.72 1304.59 2951.04 1317.72 2951.03 1333.46C2951.02 1348.55 2949.7 1361.67 2947.05 1372.82C2949.69 1383.32 2951 1396.44 2950.99 1412.19C2950.99 1427.28 2949.66 1440.4 2947.01 1451.55L3065.83 1451.6C3068.47 1462.1 3069.78 1475.22 3069.77 1490.97C3069.77 1506.05 3068.44 1519.18 3065.79 1530.33L2946.98 1530.27C2949.62 1540.77 2950.93 1553.89 2950.92 1569.64C2950.92 1584.73 2949.59 1597.85 2946.94 1609C2949.58 1619.5 2950.89 1632.62 2950.89 1648.36C2950.88 1663.45 2949.55 1676.57 2946.91 1687.73C2949.54 1698.22 2950.86 1711.35 2950.85 1727.09C2950.84 1742.18 2949.52 1755.3 2946.87 1766.45L3065.69 1766.5Z" fill="#650000"/>
<path d="M3501.73 1766.7C3504.37 1777.2 3505.68 1790.32 3505.67 1806.06C3505.67 1821.15 3504.34 1834.27 3501.69 1845.42L3422.48 1845.39C3419.85 1834.23 3418.54 1821.11 3418.54 1806.02C3418.55 1790.28 3419.88 1777.16 3422.52 1766.66L3382.92 1766.65C3380.28 1755.49 3378.97 1742.37 3378.97 1727.28C3378.98 1711.54 3380.31 1698.42 3382.95 1687.92L3264.14 1687.87C3266.77 1698.36 3268.09 1711.49 3268.08 1727.23C3268.07 1742.32 3266.75 1755.44 3264.1 1766.59L3382.92 1766.65C3385.55 1777.14 3386.87 1790.26 3386.86 1806.01C3386.85 1821.1 3385.53 1834.22 3382.88 1845.37L3224.46 1845.3C3221.82 1834.15 3220.51 1821.03 3220.52 1805.94C3220.52 1790.19 3221.85 1777.07 3224.5 1766.57L3184.89 1766.56C3182.25 1755.4 3180.94 1742.28 3180.95 1727.19C3180.95 1711.45 3182.28 1698.33 3184.93 1687.83L3224.53 1687.85C3221.9 1676.7 3220.58 1663.57 3220.59 1648.48C3220.59 1632.74 3221.92 1619.62 3224.57 1609.12L3382.99 1609.19C3380.35 1598.04 3379.04 1584.92 3379.04 1569.83C3379.05 1554.08 3380.38 1540.96 3383.02 1530.47L3244.4 1530.41C3241.77 1519.25 3240.45 1506.13 3240.46 1491.04C3240.47 1475.3 3241.79 1462.18 3244.44 1451.68L3422.66 1451.76C3425.3 1462.26 3426.61 1475.38 3426.6 1491.12C3426.6 1506.21 3425.27 1519.33 3422.63 1530.49L3462.23 1530.5C3464.87 1541 3466.18 1554.12 3466.17 1569.87C3466.17 1584.96 3464.84 1598.08 3462.2 1609.23C3464.83 1619.73 3466.15 1632.85 3466.14 1648.59C3466.13 1663.68 3464.81 1676.8 3462.16 1687.95C3464.8 1698.45 3466.11 1711.57 3466.1 1727.32C3466.1 1742.41 3464.77 1755.53 3462.13 1766.68L3501.73 1766.7Z" fill="#650000"/>
<mask id="mask0_9_812" style="mask-type:alpha" maskUnits="userSpaceOnUse" x="1595" y="1294" width="1911" height="552">
<path d="M1916.62 1765.7C1919.26 1776.18 1920.58 1789.28 1920.58 1805C1920.58 1820.07 1919.26 1833.17 1916.62 1844.3L1599.86 1844C1597.22 1832.86 1595.9 1819.76 1595.89 1804.69C1595.89 1788.97 1597.21 1775.87 1599.85 1765.4L1916.62 1765.7Z" fill="#650000"/>
<path d="M2312.94 1373.07C2315.58 1383.55 2316.9 1396.65 2316.9 1412.37C2316.9 1427.44 2315.58 1440.54 2312.94 1451.67C2315.58 1462.15 2316.9 1475.25 2316.9 1490.97C2316.9 1506.04 2315.59 1519.14 2312.95 1530.27C2315.59 1540.75 2316.91 1553.86 2316.91 1569.58C2316.91 1584.64 2315.59 1597.74 2312.95 1608.87C2315.59 1619.36 2316.91 1632.46 2316.91 1648.18C2316.91 1663.24 2315.6 1676.34 2312.96 1687.47C2315.6 1697.96 2316.92 1711.06 2316.92 1726.78C2316.92 1741.84 2315.6 1754.94 2312.96 1766.08C2315.6 1776.56 2316.92 1789.66 2316.92 1805.38C2316.92 1820.45 2315.61 1833.55 2312.97 1844.68L2233.78 1844.6C2231.13 1833.46 2229.81 1820.36 2229.81 1805.3C2229.81 1789.58 2231.13 1776.48 2233.77 1766L2204.07 1765.97C2201.43 1754.83 2200.11 1741.73 2200.11 1726.67C2200.11 1710.95 2201.43 1697.85 2204.07 1687.37L2233.77 1687.4C2231.12 1676.26 2229.8 1663.16 2229.8 1648.09C2229.8 1632.37 2231.12 1619.28 2233.76 1608.8L2204.06 1608.77C2201.42 1597.63 2200.1 1584.53 2200.1 1569.47C2200.1 1553.74 2201.42 1540.65 2204.06 1530.17L2233.75 1530.2C2231.11 1519.06 2229.79 1505.96 2229.79 1490.89C2229.79 1475.17 2231.11 1462.07 2233.75 1451.59C2231.11 1440.46 2229.79 1427.36 2229.79 1412.29C2229.79 1396.57 2231.11 1383.47 2233.74 1372.99C2231.1 1361.86 2229.78 1348.75 2229.78 1333.69C2229.78 1317.97 2231.1 1304.87 2233.74 1294.39L2312.93 1294.47C2315.57 1304.95 2316.89 1318.05 2316.89 1333.77C2316.89 1348.84 2315.57 1361.94 2312.94 1373.07ZM2188.22 1490.85C2188.22 1505.92 2186.9 1519.02 2184.26 1530.15L2085.27 1530.05C2087.91 1540.54 2089.23 1553.64 2089.23 1569.36C2089.23 1584.42 2087.91 1597.52 2085.28 1608.66L2055.58 1608.63C2055.58 1608.63 2059.54 1632.21 2059.54 1647.93C2059.54 1663 2058.22 1676.1 2055.58 1687.23L2085.28 1687.26C2087.92 1697.74 2089.24 1710.84 2089.24 1726.56C2089.24 1741.63 2087.93 1754.73 2085.29 1765.86L2184.28 1765.95C2186.92 1776.44 2188.24 1789.54 2188.24 1805.26C2188.24 1820.32 2186.92 1833.42 2184.28 1844.56L2075.39 1844.45C2072.75 1833.31 2071.43 1820.21 2071.43 1805.15C2071.43 1789.43 2072.75 1776.33 2075.39 1765.85L2025.89 1765.8C2023.25 1754.67 2021.93 1741.56 2021.93 1726.5C2021.93 1710.78 2023.25 1697.68 2025.89 1687.2L1996.19 1687.17C1993.55 1676.04 1992.23 1662.93 1992.23 1647.87C1992.23 1632.15 1993.55 1619.05 1996.19 1608.57L2025.88 1608.6C2023.24 1597.46 2021.92 1584.36 2021.92 1569.3C2021.92 1553.57 2023.24 1540.48 2025.88 1530L2075.37 1530.05C2072.73 1518.91 2071.41 1505.81 2071.41 1490.74C2071.41 1475.02 2072.73 1461.92 2075.37 1451.44L2184.25 1451.55C2186.9 1462.03 2188.22 1475.13 2188.22 1490.85Z" fill="#650000"/>
<path d="M2709.31 1766.45C2711.95 1776.94 2713.27 1790.04 2713.27 1805.76C2713.27 1820.82 2711.95 1833.92 2709.31 1845.06L2630.12 1844.98C2627.48 1833.84 2626.16 1820.74 2626.16 1805.68C2626.16 1789.96 2627.48 1776.86 2630.11 1766.38L2590.52 1766.34C2587.88 1755.2 2586.56 1742.1 2586.56 1727.04C2586.56 1711.32 2587.87 1698.22 2590.51 1687.74L2471.73 1687.63C2474.37 1698.11 2475.69 1711.21 2475.69 1726.93C2475.69 1742 2474.37 1755.09 2471.73 1766.23L2590.52 1766.34C2593.16 1776.82 2594.48 1789.93 2594.48 1805.65C2594.48 1820.71 2593.16 1833.81 2590.52 1844.94L2432.14 1844.79C2429.5 1833.65 2428.18 1820.55 2428.18 1805.49C2428.18 1789.77 2429.5 1776.67 2432.14 1766.19L2392.54 1766.15C2389.9 1755.01 2388.58 1741.91 2388.58 1726.85C2388.58 1711.13 2389.9 1698.03 2392.53 1687.55L2432.13 1687.59C2429.49 1676.45 2428.17 1663.35 2428.17 1648.28C2428.17 1632.56 2429.49 1619.46 2432.13 1608.99L2590.51 1609.14C2587.87 1598 2586.55 1584.9 2586.55 1569.83C2586.55 1554.11 2587.86 1541.01 2590.5 1530.54L2451.92 1530.4C2449.28 1519.27 2447.96 1506.16 2447.96 1491.1C2447.95 1475.38 2449.27 1462.28 2451.91 1451.8L2630.09 1451.97C2632.73 1462.46 2634.05 1475.56 2634.06 1491.28C2634.06 1506.34 2632.74 1519.44 2630.1 1530.57L2669.69 1530.61C2672.33 1541.09 2673.66 1554.2 2673.66 1569.92C2673.66 1584.98 2672.34 1598.08 2669.7 1609.21C2672.34 1619.7 2673.66 1632.8 2673.66 1648.52C2673.66 1663.58 2672.34 1676.68 2669.7 1687.81C2672.35 1698.3 2673.67 1711.4 2673.67 1727.12C2673.67 1742.18 2672.35 1755.28 2669.71 1766.42L2709.31 1766.45Z" fill="#650000"/>
<path d="M3066.05 1766.79C3068.69 1777.28 3070.02 1790.38 3070.02 1806.1C3070.02 1821.16 3068.7 1834.26 3066.06 1845.4L2907.68 1845.24C2905.04 1834.11 2903.72 1821.01 2903.71 1805.94C2903.71 1790.22 2905.03 1777.12 2907.67 1766.64L2868.08 1766.61C2865.43 1755.47 2864.11 1742.37 2864.11 1727.3C2864.11 1711.58 2865.43 1698.48 2868.07 1688C2865.43 1676.87 2864.11 1663.76 2864.11 1648.7C2864.11 1632.98 2865.43 1619.88 2868.07 1609.4C2865.42 1598.26 2864.1 1585.16 2864.1 1570.1C2864.1 1554.38 2865.42 1541.28 2868.06 1530.8L2788.87 1530.73C2786.23 1519.59 2784.91 1506.49 2784.91 1491.42C2784.91 1475.7 2786.22 1462.6 2788.86 1452.12L2868.05 1452.2C2865.41 1441.06 2864.09 1427.96 2864.09 1412.89C2864.09 1397.17 2865.41 1384.08 2868.05 1373.6C2865.41 1362.46 2864.09 1349.36 2864.09 1334.29C2864.09 1318.57 2865.41 1305.47 2868.04 1295L2947.24 1295.07C2949.88 1305.55 2951.2 1318.66 2951.2 1334.38C2951.2 1349.44 2949.88 1362.54 2947.24 1373.67C2949.88 1384.16 2951.2 1397.26 2951.2 1412.98C2951.2 1428.04 2949.89 1441.14 2947.25 1452.27L3066.03 1452.39C3068.67 1462.87 3069.99 1475.97 3070 1491.69C3070 1506.76 3068.68 1519.86 3066.04 1530.99L2947.25 1530.88C2949.89 1541.36 2951.21 1554.46 2951.21 1570.18C2951.21 1585.25 2949.9 1598.35 2947.26 1609.48C2949.9 1619.96 2951.22 1633.06 2951.22 1648.78C2951.22 1663.85 2949.9 1676.95 2947.26 1688.08C2949.9 1698.56 2951.22 1711.66 2951.22 1727.38C2951.22 1742.45 2949.91 1755.55 2947.27 1766.68L3066.05 1766.79Z" fill="#650000"/>
<path d="M3501.99 1767.21C3504.63 1777.69 3505.95 1790.79 3505.96 1806.51C3505.96 1821.58 3504.64 1834.68 3502 1845.81L3422.81 1845.74C3420.17 1834.6 3418.85 1821.5 3418.85 1806.43C3418.84 1790.71 3420.16 1777.61 3422.8 1767.13L3383.21 1767.1C3380.57 1755.96 3379.25 1742.86 3379.24 1727.79C3379.24 1712.07 3380.56 1698.97 3383.2 1688.49L3264.41 1688.38C3267.05 1698.86 3268.38 1711.97 3268.38 1727.69C3268.38 1742.75 3267.06 1755.85 3264.42 1766.98L3383.21 1767.1C3385.85 1777.58 3387.17 1790.68 3387.17 1806.4C3387.17 1821.47 3385.85 1834.56 3383.21 1845.7L3224.83 1845.55C3222.19 1834.41 3220.87 1821.31 3220.87 1806.24C3220.87 1790.52 3222.18 1777.42 3224.82 1766.95L3185.23 1766.91C3182.59 1755.77 3181.27 1742.67 3181.27 1727.6C3181.26 1711.88 3182.58 1698.78 3185.22 1688.31L3224.82 1688.34C3222.18 1677.21 3220.86 1664.1 3220.86 1649.04C3220.86 1633.32 3222.17 1620.22 3224.81 1609.74L3383.2 1609.89C3380.56 1598.76 3379.24 1585.65 3379.23 1570.59C3379.23 1554.87 3380.55 1541.77 3383.19 1531.29L3244.61 1531.16C3241.97 1520.02 3240.64 1506.92 3240.64 1491.85C3240.64 1476.13 3241.96 1463.04 3244.6 1452.56L3422.78 1452.73C3425.42 1463.21 3426.74 1476.31 3426.74 1492.03C3426.74 1507.1 3425.43 1520.2 3422.79 1531.33L3462.38 1531.37C3465.02 1541.85 3466.34 1554.95 3466.34 1570.67C3466.35 1585.74 3465.03 1598.84 3462.39 1609.97C3465.03 1620.45 3466.35 1633.55 3466.35 1649.27C3466.35 1664.34 3465.03 1677.44 3462.39 1688.57C3465.03 1699.05 3466.35 1712.15 3466.36 1727.87C3466.36 1742.94 3465.04 1756.04 3462.4 1767.17L3501.99 1767.21Z" fill="#650000"/>
</mask>
<g mask="url(#mask0_9_812)">
<path d="M1699.63 1686.66L3781.47 1686.98L3781.53 1765.2L1699.7 1764.89L1699.63 1686.66Z" fill="#D9D9D9" fill-opacity="0.5"/>
<path d="M1716.53 1530.2L3755.72 1529.97L3755.8 1607.27L1716.62 1607.51L1716.53 1530.2Z" fill="#D9D9D9" fill-opacity="0.5"/>
<path d="M1722.71 1368.83L3761.88 1375.5L3761.7 1454.72L1722.53 1448.05L1722.71 1368.83Z" fill="#D9D9D9" fill-opacity="0.5"/>
</g>
<path d="M598.458 702.001C647.827 702.001 687 687.068 715.977 657.201C744.954 627.334 759.443 591.067 759.443 548.401C759.443 504.667 745.491 472.134 717.587 450.8C690.757 428.4 655.876 417.2 612.947 417.2L553.386 422.826L527.226 696.826L598.458 702.001ZM699.879 906.802H500.258L472.891 1186.8H158.972L62.3818 217.2H780.371C893.06 217.2 984.285 246 1054.04 303.6C1124.88 360.133 1160.3 441.734 1160.3 548.401C1160.3 613.467 1146.88 670.001 1120.05 718.001C1094.29 766.001 1058.87 803.335 1013.8 830.002C926.867 881.202 822.227 906.802 699.879 906.802Z" fill="#FEDC4C"/>
<path d="M1690.2 450.8L1717.56 441.2L1662.83 1186.8H1358.57L1332.81 814.002L1307.05 441.2C1368.23 465.734 1433.16 478 1501.85 478C1571.61 478 1634.39 468.934 1690.2 450.8ZM1511.5 407.6C1457.84 407.6 1412.77 391.6 1376.28 359.6C1339.79 327.6 1321.54 286 1321.54 234.8C1321.54 182.533 1339.25 140.933 1374.67 110C1411.16 77.9999 1456.23 62 1509.89 62C1564.63 62 1610.24 77.9999 1646.73 110C1683.22 142 1701.47 183.6 1701.47 234.8C1701.47 286 1683.22 327.6 1646.73 359.6C1610.24 391.6 1565.17 407.6 1511.5 407.6Z" fill="#FEDC4C"/>
<path d="M1851.47 1186.8V1052.4L2109.4 665.326L1845.03 702.001L1885.28 428.4H2579.12V570.801L2369.99 952.826L2574.29 918.003V1186.8H1851.47Z" fill="#FEDC4C"/>
<path d="M2731.85 1186.8V1052.4L2972.67 679.326L2725.41 702.001L2765.66 428.4H3459.5V570.801L3241.32 952.826L3454.67 918.003V1186.8H2731.85Z" fill="#FEDC4C"/>
<path fill-rule="evenodd" clip-rule="evenodd" d="M679.553 499.943C678.844 499.402 678.148 498.845 677.464 498.274C665.524 488.306 642.101 480.787 614.344 479.422C609.198 479.169 604.885 483.115 604.392 488.244L590.862 629.045C590.297 634.918 594.923 640.028 600.813 639.671C631.758 637.798 657.561 628.091 671.072 614.165C688.489 596.213 697.062 575.52 697.062 548.401C697.062 518.605 688.315 506.642 679.553 499.943ZM532.193 702.001C526.292 702.001 521.674 696.919 522.239 691.045L547.684 426.244C548.177 421.115 552.486 417.2 557.639 417.2H612.947C655.876 417.2 690.756 428.4 717.587 450.8C745.491 472.134 759.443 504.667 759.443 548.401C759.443 591.067 744.954 627.334 715.977 657.201C687 687.068 647.827 702.001 598.458 702.001H532.193ZM780.371 217.2C893.06 217.2 984.285 246 1054.04 303.6C1124.88 360.133 1160.3 441.734 1160.3 548.401C1160.3 613.467 1146.88 670.001 1120.05 718.001C1094.29 766.001 1058.87 803.335 1013.8 830.002C926.867 881.202 822.227 906.802 699.879 906.802H518.399C508.107 906.802 499.495 914.614 498.494 924.857L474.656 1168.75C473.654 1178.99 465.043 1186.8 454.75 1186.8H177.079C166.801 1186.8 158.196 1179.01 157.177 1168.79L64.5714 239.182C63.3988 227.411 72.6435 217.2 84.4729 217.2H780.371ZM556.873 968.802L534.98 1192.8C531.875 1224.57 505.007 1248.8 472.891 1248.8H158.972C126.9 1248.8 100.054 1224.63 96.8942 1192.91L0.303788 223.309C-1.43167 205.888 4.32391 188.549 16.1493 175.575C27.9747 162.601 44.7677 155.2 62.3816 155.2H780.371C903.786 155.2 1010.1 186.888 1093.51 255.583C1181.55 326.061 1222.68 426.93 1222.68 548.401C1222.68 621.856 1207.52 688.974 1174.84 747.64C1143.99 804.95 1100.85 850.656 1045.71 883.278L1045.6 883.34C947.197 941.297 831.057 968.802 699.879 968.802H556.873ZM1653.55 461.162C1666.08 458.12 1678.3 454.666 1690.2 450.8V450.8C1703.12 446.269 1716.44 456.471 1715.44 470.124L1664.19 1168.27C1663.42 1178.72 1654.72 1186.8 1644.24 1186.8H1377.24C1366.72 1186.8 1358.01 1178.67 1357.28 1168.18L1309.25 473.01C1308.24 458.293 1322.99 447.513 1337 452.132C1348.22 455.831 1359.56 459.133 1371.02 462.038C1413 472.68 1456.61 478 1501.85 478C1556.73 478 1607.3 472.388 1653.55 461.162ZM1308.88 379.226C1275.62 338.873 1259.16 289.743 1259.16 234.8C1259.16 167.015 1282.94 107.596 1333.46 63.457C1382.53 20.445 1442.74 0 1509.89 0C1577.8 0 1638.68 20.2554 1688 63.5099C1738.78 108.039 1763.85 166.993 1763.85 234.8C1763.85 289.775 1747.37 338.93 1714.07 379.296C1728.74 378.481 1743.45 382.834 1755.42 391.924C1772.15 404.621 1781.31 424.847 1779.78 445.712L1725.05 1191.31C1722.67 1223.72 1695.52 1248.8 1662.83 1248.8H1358.57C1325.78 1248.8 1298.58 1223.57 1296.34 1191.05L1244.82 445.448C1243.35 424.138 1253.02 403.575 1270.41 391.027C1281.73 382.856 1295.29 378.833 1308.88 379.226ZM1374.67 110C1339.25 140.933 1321.54 182.533 1321.54 234.8C1321.54 286 1339.79 327.6 1376.28 359.6C1412.77 391.6 1457.84 407.6 1511.5 407.6C1565.17 407.6 1610.24 391.6 1646.73 359.6C1683.22 327.6 1701.47 286 1701.47 234.8C1701.47 183.6 1683.22 142 1646.73 110C1610.24 77.9999 1564.63 62 1509.89 62C1456.23 62 1411.16 77.9999 1374.67 110ZM1851.47 1248.8C1817.02 1248.8 1789.09 1221.04 1789.09 1186.8V1052.4C1789.09 1039.44 1793.18 1026.81 1800.78 1016.27L2005.6 732.378L1857.64 762.722C1837.71 766.809 1817.03 760.979 1802.23 747.102C1787.42 733.224 1780.36 713.044 1783.31 693.032L1823.55 419.431C1828.03 388.978 1854.31 366.4 1885.28 366.4H2579.12C2613.57 366.4 2641.5 394.159 2641.5 428.4V570.801C2641.5 582.749 2638.03 594.442 2631.5 604.474L2443.99 892.579L2556.14 858.685C2575.05 852.971 2595.56 856.497 2611.43 868.191C2627.31 879.885 2636.67 898.363 2636.67 918.003V1186.8C2636.67 1221.04 2608.74 1248.8 2574.29 1248.8H1851.47ZM2351.43 985.36C2333.57 990.755 2318.7 970.937 2328.88 955.306L2575.88 575.775C2577.99 572.529 2579.12 568.739 2579.12 564.866V448.4C2579.12 437.355 2570.16 428.4 2559.12 428.4H1902.55C1892.63 428.4 1884.21 435.674 1882.76 445.49L1849.18 673.764C1847.17 687.492 1859.4 699.055 1872.99 696.267L2099.04 649.907C2116.89 646.245 2129.94 666.421 2119.28 681.201L1855.25 1047.16C1852.79 1050.57 1851.47 1054.66 1851.47 1058.86V1166.8C1851.47 1177.85 1860.42 1186.8 1871.47 1186.8H2554.29C2565.33 1186.8 2574.29 1177.85 2574.29 1166.8V944.941C2574.29 931.526 2561.34 921.915 2548.5 925.796L2351.43 985.36ZM2731.85 1248.8C2697.4 1248.8 2669.47 1221.04 2669.47 1186.8V1052.4C2669.47 1039.44 2673.56 1026.81 2681.16 1016.27L2885.98 732.378L2738.02 762.722C2718.09 766.809 2697.41 760.979 2682.61 747.102C2667.81 733.224 2660.74 713.044 2663.69 693.032L2703.93 419.431C2708.41 388.978 2734.69 366.4 2765.66 366.4H3459.5C3493.95 366.4 3521.88 394.159 3521.88 428.4V570.801C3521.88 582.749 3518.41 594.442 3511.88 604.474L3324.38 892.579L3436.52 858.685C3455.43 852.971 3475.94 856.497 3491.81 868.191C3507.69 879.885 3517.05 898.363 3517.05 918.003V1186.8C3517.05 1221.04 3489.12 1248.8 3454.67 1248.8H2731.85ZM3231.81 985.36C3213.95 990.755 3199.08 970.937 3209.26 955.305L3456.26 575.775C3458.37 572.529 3459.5 568.739 3459.5 564.866V448.4C3459.5 437.355 3450.55 428.4 3439.5 428.4H2782.93C2773.01 428.4 2764.59 435.674 2763.14 445.49L2729.57 673.764C2727.55 687.492 2739.78 699.055 2753.37 696.267L2979.42 649.907C2997.28 646.245 3010.32 666.421 2999.66 681.201L2735.63 1047.16C2733.17 1050.57 2731.85 1054.66 2731.85 1058.86V1166.8C2731.85 1177.85 2740.81 1186.8 2751.85 1186.8H3434.67C3445.72 1186.8 3454.67 1177.85 3454.67 1166.8V944.941C3454.67 931.526 3441.72 921.915 3428.88 925.796L3231.81 985.36Z" fill="#650000"/>
</g>
<defs>
<clipPath id="clip0_9_812">
<rect width="3614" height="2417.64" fill="white"/>
</clipPath>
</defs>
</svg>
